<svg width="43" height="43" viewBox="0 0 43 43" fill="none" xmlns="http://www.w3.org/2000/svg">
<path opacity="0.8" d="M21.502 0C15.6629 0 14.9301 0.0255176 12.6368 0.129825C10.3479 0.23458 8.78553 0.596745 7.41847 1.12813C6.00439 1.67697 4.80485 2.41115 3.6098 3.60599C2.41385 4.80037 1.67926 5.99923 1.12831 7.41208C0.595287 8.77882 0.232471 10.3407 0.129449 12.6274C0.0268751 14.9195 0 15.6524 0 21.4882C0 27.324 0.0259799 28.0542 0.129898 30.3462C0.235159 32.6338 0.597527 34.1953 1.12876 35.5616C1.67836 36.9749 2.41295 38.1738 3.60845 39.3681C4.80306 40.5634 6.00259 41.2994 7.41579 41.8482C8.78374 42.3796 10.3465 42.7418 12.635 42.8465C14.9283 42.9509 15.6607 42.9764 21.4993 42.9764C27.3389 42.9764 28.0694 42.9509 30.3628 42.8465C32.6517 42.7418 34.2158 42.3796 35.5838 41.8482C36.9974 41.2994 38.1951 40.5634 39.3898 39.3681C40.5857 38.1738 41.3203 36.9749 41.8712 35.5621C42.3998 34.1953 42.7626 32.6334 42.8701 30.3467C42.9731 28.0546 43 27.324 43 21.4882C43 15.6524 42.9731 14.92 42.8701 12.6279C42.7626 10.3403 42.3998 8.77882 41.8712 7.41253C41.3203 5.99923 40.5857 4.80037 39.3898 3.60599C38.1938 2.41071 36.9979 1.67653 35.5824 1.12813C34.2118 0.596745 32.6485 0.23458 30.3597 0.129825C28.0663 0.0255176 27.3362 0 21.4953 0H21.502ZM19.5733 3.87235C20.1457 3.87145 20.7844 3.87235 21.502 3.87235C27.2426 3.87235 27.923 3.89294 30.1899 3.99591C32.2862 4.09171 33.4239 4.44179 34.1818 4.73591C35.1851 5.12538 35.9004 5.59096 36.6525 6.34304C37.405 7.09513 37.8709 7.8114 38.2614 8.81419C38.5557 9.57075 38.9064 10.7078 39.0019 12.8029C39.1049 15.0681 39.1273 15.7486 39.1273 21.4833C39.1273 27.2179 39.1049 27.8984 39.0019 30.1636C38.906 32.2587 38.5557 33.3958 38.2614 34.1523C37.8717 35.1551 37.405 35.8692 36.6525 36.6208C35.9 37.3729 35.1856 37.8385 34.1818 38.2279C33.4248 38.5234 32.2862 38.8726 30.1899 38.9684C27.9234 39.0713 27.2426 39.0937 21.502 39.0937C15.761 39.0937 15.0806 39.0713 12.8141 38.9684C10.7179 38.8717 9.58014 38.5216 8.82181 38.2275C7.81847 37.838 7.10179 37.3724 6.34928 36.6203C5.59678 35.8683 5.13094 35.1538 4.74035 34.1506C4.44607 33.394 4.09535 32.2569 3.99994 30.1618C3.89692 27.8966 3.87631 27.2161 3.87631 21.4779C3.87631 15.7396 3.89692 15.0628 3.99994 12.7976C4.09579 10.7025 4.44607 9.56538 4.74035 8.80792C5.13004 7.80514 5.59678 7.08886 6.34928 6.33678C7.10179 5.58469 7.81847 5.11911 8.82181 4.72874C9.57969 4.43328 10.7179 4.0841 12.8141 3.98785C14.7975 3.89832 15.5662 3.87146 19.5733 3.86698V3.87235ZM32.9787 7.44028C31.5543 7.44028 30.3986 8.59393 30.3986 10.018C30.3986 11.4416 31.5543 12.5966 32.9787 12.5966C34.403 12.5966 35.5587 11.4416 35.5587 10.018C35.5587 8.59438 34.403 7.43939 32.9787 7.43939V7.44028ZM21.502 10.4531C15.4045 10.4531 10.4608 15.394 10.4608 21.4882C10.4608 27.5823 15.4045 32.521 21.502 32.521C27.5996 32.521 32.5415 27.5823 32.5415 21.4882C32.5415 15.394 27.5991 10.4531 21.5016 10.4531H21.502ZM21.502 14.3255C25.4598 14.3255 28.6688 17.5321 28.6688 21.4882C28.6688 25.4438 25.4598 28.6509 21.502 28.6509C17.5437 28.6509 14.3353 25.4438 14.3353 21.4882C14.3353 17.5321 17.5437 14.3255 21.502 14.3255Z" fill="black"/>
</svg>
