<svg width="46" height="46" viewBox="0 0 46 46" fill="none" xmlns="http://www.w3.org/2000/svg">
<rect width="46" height="46" rx="14" fill="url(#paint0_linear)"/>
<g clip-path="url(#clip0)">
<path d="M34.7378 14.886C35.0961 15.2443 35.6772 15.2444 36.0356 14.886C36.394 14.5276 36.394 13.9465 36.0356 13.5882L32.4123 9.96486C32.054 9.60648 31.4729 9.60648 31.1145 9.96486C30.7561 10.3232 30.7561 10.9043 31.1145 11.2627L32.2773 12.4254L30.4175 14.2852L26.7851 10.6528C26.4268 10.2944 25.8457 10.2944 25.4873 10.6528C25.129 11.0112 25.129 11.5922 25.4873 11.9506L26.4209 12.8841L24.3763 14.9288L26.8986 17.4511C27.257 17.8095 27.257 18.3905 26.8986 18.7489C26.5403 19.1073 25.9592 19.1073 25.6008 18.7489L23.0785 16.2265L21.6594 17.6456L24.1817 20.168C24.5401 20.5264 24.5401 21.1074 24.1817 21.4658C23.8234 21.8242 23.2423 21.8242 22.884 21.4658L20.3616 18.9434L17.6682 21.6369C17.3098 21.9953 17.3098 22.5763 17.6682 22.9347L23.066 28.3325C23.4241 28.6907 24.0055 28.6908 24.3637 28.3325L33.1164 19.5798L34.05 20.5134C34.4083 20.8718 34.9894 20.8718 35.3478 20.5134C35.7061 20.155 35.7061 19.574 35.3478 19.2156L31.7153 15.583L33.575 13.7232L34.7378 14.886Z" fill="white"/>
<path opacity="0.7" d="M16.0478 25.0315C15.6894 25.3898 15.6894 25.9709 16.0478 26.3293L17.2105 27.492L10.2659 34.4367C9.90747 34.795 9.90747 35.3761 10.2659 35.7345C10.6242 36.0928 11.2053 36.0928 11.5636 35.7345L18.5083 28.7899L19.671 29.9526C20.0291 30.3109 20.6105 30.311 20.9688 29.9526L21.5296 29.3919L16.6085 24.4708L16.0478 25.0315Z" fill="white"/>
</g>
<defs>
<linearGradient id="paint0_linear" x1="23" y1="0" x2="23" y2="46" gradientUnits="userSpaceOnUse">
<stop stop-color="#7373EC"/>
<stop offset="1" stop-color="#000080"/>
</linearGradient>
<clipPath id="clip0">
<rect width="26.3072" height="26.3072" fill="white" transform="translate(9.99707 9.69608)"/>
</clipPath>
</defs>
</svg>
